<svg height="512" viewBox="0 0 42 60" width="512" xmlns="http://www.w3.org/2000/svg"><g id="Page-1" fill="none" fill-rule="evenodd"><g id="002---Elderly-Man" fill="rgb(0,0,0)" fill-rule="nonzero" transform="translate(-1)"><path id="Shape" d="m15 8.511c.2334328-.00005808.4594902-.08177835.639-.231 1.5461015-1.28419862 3.4476368-2.0653982 5.45-2.239.5503518-.04915334.9566533-.53514825.9075-1.0855s-.5351482-.95665334-1.0855-.9075c-2.4065711.20994624-4.6917231 1.14947513-6.55 2.693-.3247138.26906666-.4457359.71291747-.3025389 1.10956657.1431971.3966491.5198332.66083686.9415389.66043343z"/><path id="Shape" d="m6 23.96v.54c.00551044 4.692136 3.80786402 8.4944896 8.5 8.5h.319c.3499043.0077693.671764.1931966.854.492.3978585.6328773.8844859 1.20538 1.445 1.7-.1609127.6572883-.4094729 1.2899563-.739 1.881-1.4084307.2742725-2.7101564.9424732-3.754 1.927h-.625c-5.52033443.0060624-9.99393763 4.4796656-10 10v7c0 2.209139 1.790861 4 4 4h32c2.209139 0 4-1.790861 4-4v-7c-.0060624-5.5203344-4.4796656-9.9939376-10-10h-.625c-1.0432055-.9854511-2.3445964-1.6546983-3.753-1.93-.3297151-.5916609-.5782806-1.2250152-.739-1.883.5594915-.4950679 1.0453988-1.0675158 1.443-1.7.1828427-.2970066.5042845-.4805261.853-.487h.32c4.6925265-.0049595 8.4954885-3.8074741 8.501-8.5v-.5c2.3653864-.0027833 4.4051971-1.6627178 4.8885932-3.9781851s-.7218961-4.6528764-2.8885932-5.6018149v-3.42c-.0038531-2.20754103-1.792459-3.99614691-4-4-.2470505.00175556-.493418.02619147-.736.073-2.9671718-4.42207991-7.9430936-7.07447561-13.2684007-7.0726692-5.3253071.00180642-10.2994283 2.6575773-13.2635993 7.0816692-1.29301895-.22922771-2.61744095.17665555-3.56 1.091-.75248298.7480317-1.17449521 1.76597416-1.172 2.827v3.418c-1.01590639.4428433-1.85614597 1.2102786-2.389 2.182-.67894889 1.253276-.7997916 2.7342343-.333 4.081.67722764 2.0158065 2.59661472 3.3486465 4.722 3.279zm10.335 15.158c.5298423 1.2535668 1.4304703 2.3150585 2.581 3.042-.8054262.7436098-1.3664411 1.7139668-1.609 2.783l-.115.043c-2.02-1.13-2.832-3.587-3.1-4.641.6442972-.5747209 1.4115357-.9944273 2.243-1.227zm8.653 12.7-3.026 2.17-2.962-2.196 1.362-4.014c1.0727126.2953175 2.2052874.2953175 3.278 0zm-.364-6.818c-1.4942829 1.3359164-3.7537171 1.3359164-5.248 0 .3256259-1.1804708 1.3994415-1.9981851 2.624-1.9981851s2.2983741.8177143 2.624 1.9981851zm15.376 4v7c0 1.1045695-.8954305 2-2 2h-3v-7c0-.5522847-.4477153-1-1-1s-1 .4477153-1 1v7h-22v-7c0-.5522847-.4477153-1-1-1-.55228475 0-1 .4477153-1 1v7h-3c-1.1045695 0-2-.8954305-2-2v-7c.00495988-4.4162219 3.58377808-7.9950401 8-8h.2c.5375955 2.3631373 1.9805845 4.4211648 4.019 5.732.5730424.3218396 1.2649096.3522758 1.864.082.0643425-.0335055.1267722-.0705627.187-.111.09.073.18.144.273.211l-1.443 4.241c-.2733329.8345662.0198207 1.7503186.727 2.271l2.939 2.162c.3556904.2676718.7888441.4122904 1.234.412.4390155.0027464.866963-.1376794 1.219-.4l2.961-2.18c.7040392-.5229515.9931249-1.4385911.717-2.271l-1.438-4.235c.093-.067.183-.138.273-.211.0602278.0404373.1226575.0774945.187.111.5990904.2702758 1.2909576.2398396 1.864-.082 2.0376599-1.3112163 3.4798942-3.3691916 4.017-5.732h.2c4.4162219.0049599 7.9950401 3.5837781 8 8zm-13.192-4.014.487.873-.6-.916c-.2425589-1.0690332-.8035738-2.0393902-1.609-2.783 1.149908-.7272142 2.0503809-1.7881743 2.581-3.041.8308985.2330153 1.5974612.6530684 2.241 1.228-.262 1.053-1.067 3.502-3.1 4.639zm-.9-6.863c-.5321001 1.711668-2.116033 2.8779787-3.9085 2.8779787s-3.3763999-1.1663107-3.9085-2.8779787c.3204091-.5698802.5817657-1.1710003.78-1.794 1.9895922.8952751 4.2674078.8952751 6.257 0 .1982931.6229776.4596472 1.2240918.78 1.794zm-.908-22.123h7v3c0 1.1045695-.8954305 2-2 2h-3c-1.1045695 0-2-.8954305-2-2zm8.9999894 0h2.0000106v1.009c.0021392.258278-.0990297.5066999-.281.69-.3984083.3829036-1.0261816.389041-1.432.014-.1849395-.1858886-.2882178-.4377869-.287-.7zm3.4130106-6.413c.3764379.37376047.5877938.8825269.587 1.413v2.994c-.3496289-.025146-.7006813-.02314-1.05.006h-2.9500071l.0000071-3c-.0021616-.8098528.4871527-1.54006645 1.237-1.846.2403375-.10548522.500563-.15800781.763-.154.5302153-.00097285 1.0387372.21043111 1.412.587zm-15.413-7.587c4.5520164-.01660069 8.8230698 2.19907132 11.431 5.93-.9100337.75943452-1.4345558 1.8847197-1.431 3.07v3h-20v-3c.0028449-1.18518954-.5210895-2.31036605-1.43-3.071 2.6077173-3.7305242 6.878438-5.9458438 11.43-5.929zm-14 14h2.0000106l-.0000106 1.01c.0012178.2622131-.10206046.5141114-.287.7-.4058884.3752656-1.03406151.3686856-1.432-.015-.18311582-.184585-.28436924-.435016-.281-.695zm4 0h7v3c0 1.1045695-.8954305 2-2 2h-3c-1.1045695 0-2-.8954305-2-2zm-6-5c0-1.1045695.8954305-2 2-2s2 .8954305 2 2v3h-2.99-.01-1zm-2.632 6.561c.39307954-.7205242 1.0642045-1.2485337 1.857-1.461.021 0 .041-.01.062-.017.23294568-.0591014.47270734-.0870119.713-.083v.991c-.00905603.7918961.30088447 1.5541335.86 2.115.85596495.8230256 2.10685956 1.0847775 3.221.674.3736119 1.8691825 2.0128486 3.2160419 3.919 3.22h3c2.209139 0 4-1.790861 4-4v-3h2v3c0 2.209139 1.790861 4 4 4h3c1.9069037-.0030071 3.5472393-1.3500819 3.921-3.22 1.1135625.4099358 2.3634319.1482359 3.219-.674.5578337-.5580368.8677611-1.3169986.86-2.106v-1l.166.008c1.3979513.088454 2.5543578 1.1209598 2.8 2.5.1447819.8708502-.101351 1.7612643-.6728511 2.4341161-.5715002.6728518-1.4103476 1.059832-2.2931489 1.0578839-.2468057.0031428-.4928434-.0281588-.731-.093-.3011937-.0841218-.6243978-.0225-.8735101.1665427-.2491124.1890427-.3954461.4837368-.3954899.7964573v1.63c-.0044079 3.5880235-2.9119765 6.4955921-6.5 6.5h-.32c-1.0384457.0029585-2.0015103.5427437-2.546 1.427-.9967246 1.6000237-2.7484175 2.5725907-4.6335 2.5725907s-3.6367754-.972567-4.6335-2.5725907c-.5450511-.8851626-1.5094858-1.4250795-2.549-1.427h-.318c-3.5880235-.0044079-6.4955921-2.9119765-6.5-6.5v-.54c-.00069091-.5293977-.21271894-1.0366091-.589-1.409-.37460172-.3628805-.87855564-.5612224-1.4-.551-1.25889334.0077835-2.38974109-.7684527-2.835-1.946-.28944536-.8208255-.22049556-1.7255194.19-2.493z"/></g></g></svg>