<svg id="Capa_1" enable-background="new 0 0 512 512" height="512" viewBox="0 0 512 512" width="512" xmlns="http://www.w3.org/2000/svg"><path d="m496.896 84.732h-24.596v-53.682c0-12.407-10.093-22.5-22.5-22.5h-387.6c-12.407 0-22.5 10.093-22.5 22.5v53.683h-24.596c-8.328-.001-15.104 6.775-15.104 15.103v52.776c0 3.564 0 14.412 36.508 34.136 1.022.552 2.095.965 3.192 1.239v55.762c0 4.142 3.358 7.5 7.5 7.5s7.5-3.358 7.5-7.5v-59.896c11.858-6.781 19.225-12.422 23.8-16.998.011.011.855.837 1.02.993v78.621c0 .01-.001.019-.001.029v84.126h-.55c-6.585 0-11.943 5.357-11.943 11.943v24.434c0 6.585 5.357 11.942 11.943 11.942h354.063c6.585 0 11.943-5.357 11.943-11.942v-24.434c0-6.585-5.357-11.943-11.943-11.943h-.552v-162.774c.165-.156 1.009-.982 1.02-.993 4.574 4.576 11.942 10.217 23.8 16.998v304.595h-402.6v-214.7c0-4.142-3.358-7.5-7.5-7.5s-7.5 3.358-7.5 7.5v217.2c0 6.893 5.607 12.5 12.5 12.5h407.6c6.893 0 12.5-5.607 12.5-12.5v-302.962c1.097-.274 2.17-.687 3.192-1.239 36.508-19.724 36.508-30.572 36.508-34.136v-52.777c0-8.328-6.776-15.104-15.104-15.104zm-442.196-53.682c0-4.136 3.365-7.5 7.5-7.5h387.6c4.135 0 7.5 3.364 7.5 7.5v53.683h-402.6zm371.3 121.313c-1.829 5.4-20.826 16.848-25.838 19.649-.706.395-1.423.792-2.162 1.194-.739-.402-1.455-.799-2.162-1.194-6.044-3.376-22.212-13.361-25.497-18.94-.028-.047-.059-.097-.084-.142-.031-.057-.055-.108-.082-.162-.023-.046-.049-.094-.069-.138-.021-.047-.036-.089-.054-.134-.018-.044-.038-.09-.052-.132v-10.864c0-4.142-3.358-7.5-7.5-7.5s-7.5 3.358-7.5 7.5v10.863c-.918 2.722-9.205 10.613-28 20.842-18.795-10.229-27.082-18.121-28-20.842v-52.63h56v11.767c0 4.142 3.358 7.5 7.5 7.5s7.5-3.358 7.5-7.5v-11.768h56zm-168.268 19.89c-.567.315-1.145.633-1.732.953-5.475-2.981-25.999-14.95-28-20.842v-52.63h56v52.63c-1.884 5.546-21.075 17.003-26.268 19.889zm-141.57-.242c-.706.395-1.423.792-2.162 1.194-.739-.402-1.455-.799-2.162-1.194-5.359-2.994-24.029-14.306-25.838-19.649v-52.63h56v52.63c-1.825 5.389-20.77 16.818-25.838 19.649zm209.498 136.968h18.236l-4.456 21.646h-9.325zm62.004 21.647h-9.325l-4.456-21.646h18.237zm-28.774-20.085 4.135 20.085h-8.269zm4.662-16.562h-9.325l-4.456-21.646h18.237zm-269.032 36.647v-30.813h125.98v30.813zm125.98-45.813h-125.98v-30.813h123.48c1.378 0 2.5 1.122 2.5 2.5zm-63.5-185.081h56v52.63c-.918 2.722-9.205 10.613-28 20.842-18.795-10.229-27.082-18.121-28-20.842zm-114 73.473c-18.789-10.226-27.077-18.116-28-20.84v-52.529c0-.058.047-.104.104-.104h55.896v52.63c-.918 2.722-9.205 10.614-28 20.843zm386.975 190.74h-347.95v-18.319h4.917c.026 0 .051.004.077.004h337.96c.026 0 .051-.004.077-.004h4.917v18.319zm-26.997-33.319 4.622-22.455c.719-3.492-.161-7.08-2.414-9.843-2.252-2.763-5.589-4.348-9.154-4.348h-17.165l4.622-22.455c.718-3.492-.161-7.079-2.414-9.843-2.253-2.763-5.589-4.348-9.155-4.348h-26.063c-3.565 0-6.902 1.585-9.154 4.348s-3.132 6.351-2.414 9.843l4.622 22.455h-17.166c-3.565 0-6.901 1.585-9.154 4.348-2.253 2.764-3.133 6.351-2.414 9.844l4.622 22.455h-79.299v-74.127c0-9.649-7.851-17.5-17.5-17.5h-123.48v-59.832c4.113 2.618 8.579 5.197 12.919 7.543.021.011.04.022.061.034h.001c.002.001.004.002.006.003 4.064 2.196 8.919 2.196 12.983 0l.006-.003h.001c.021-.011.04-.022.061-.034 9.314-5.036 21.029-12.089 28.585-19.508.088-.086.181-.175.267-.26.028-.028.06-.057.087-.085 5.21 5.212 14.041 11.805 29.008 19.892 4.064 2.196 8.919 2.196 12.983 0 14.967-8.086 23.797-14.68 29.008-19.892.028.028.059.057.088.085.086.085.178.173.266.259 5.646 5.546 25.297 19.014 31.613 20.713.071.019.139.049.21.067.073.018.148.024.221.042 2.56.6 5.24.444 7.736-.459.101-.037.206-.059.306-.098.074-.029.145-.071.218-.101 6.121-2.502 23.409-13.59 30.342-20.508 5.211 5.212 14.041 11.805 29.008 19.892 4.064 2.196 8.919 2.196 12.983 0 14.967-8.086 23.798-14.68 29.008-19.892 10.709 10.732 31.437 21.204 29.008 19.892 4.064 2.196 8.919 2.196 12.983 0 .002-.001.004-.002.006-.003h.001c.021-.011.04-.022.061-.034 4.19-2.265 8.739-4.882 12.919-7.543v151.458h-14.495zm94.022-178.261c-.923 2.724-9.211 10.614-28 20.84-18.795-10.229-27.082-18.121-28-20.842v-52.63h55.896c.057 0 .104.046.104.104z"/></svg>