<?xml version="1.0" encoding="iso-8859-1"?>
<!-- Generator: Adobe Illustrator 19.0.0, SVG Export Plug-In . SVG Version: 6.00 Build 0)  -->
<svg version="1.1" id="Layer_1" xmlns="http://www.w3.org/2000/svg" xmlns:xlink="http://www.w3.org/1999/xlink" x="0px" y="0px"
	 viewBox="0 0 512 512" style="enable-background:new 0 0 512 512;" xml:space="preserve">
<g>
	<g>
		<path d="M437.344,470.695L374.166,50.092h30.588V0H113.331v50.092h26.635L76.101,470.695H51.004V512h95.279v-41.305h-19.914
			l8.238-54.252h130.521l-8.167,54.252H231.31V512h95.279v-41.305h-19.364l39.972-265.532l39.885,265.532h-21.365V512h95.279
			v-41.305H437.344z M128.539,34.884V15.208h261.008v19.676H372.83h-0.947h-49.317h-0.947H192.542h-50.266H128.539z
			 M155.374,280.455l2.978-19.677h130.033l-2.978,19.677H155.374z M283.309,295.663l-10.641,70.687H142.212l10.733-70.687H283.309z
			 M160.551,245.57l10.734-70.687H301.49l-10.64,70.687H160.551z M173.652,159.675l2.978-19.677h130.034l-2.978,19.677H173.652z
			 M178.89,124.79l11.342-74.698h130.043L309.03,124.79H178.89z M131.074,485.903v10.889H66.212v-10.889h7.581h50.267H131.074z
			 M110.985,470.695H91.482l63.865-420.603h19.503L110.985,470.695z M137.096,401.236l2.978-19.677h130.033l-2.978,19.677H137.096z
			 M311.38,485.903v10.889h-64.863v-10.889h8.154h50.263H311.38z M291.844,470.695h-19.505l63.316-420.603h3.627h15.879
			L291.844,470.695z M354.894,154.027l9.763-64.859l57.307,381.527h-19.506L354.894,154.027z M380.922,496.792v-10.889h8.442h50.263
			h6.157v10.889H380.922z"/>
	</g>
</g>
<g>
</g>
<g>
</g>
<g>
</g>
<g>
</g>
<g>
</g>
<g>
</g>
<g>
</g>
<g>
</g>
<g>
</g>
<g>
</g>
<g>
</g>
<g>
</g>
<g>
</g>
<g>
</g>
<g>
</g>
</svg>
